<?xml version="1.0" encoding="utf-8"?>
<!-- Generator: Adobe Illustrator 25.4.0, SVG Export Plug-In . SVG Version: 6.00 Build 0)  -->
<svg version="1.1" id="Layer_1" xmlns="http://www.w3.org/2000/svg" xmlns:xlink="http://www.w3.org/1999/xlink" x="0px" y="0px"
	 viewBox="0 0 742 462.7" style="enable-background:new 0 0 742 462.7;" xml:space="preserve">
<style type="text/css">
	.st0{fill:#FFFFFF;}
	.st1{fill:#A8CB54;}
	.st2{fill:#B5DD64;}
	.st3{fill:#DCF3A3;}
	.st4{stroke:#FFFFFF;stroke-miterlimit:10;}
	.st5{fill:#326DE6;}
</style>
<path class="st0" d="M703.3,221.2c-3.4-0.1-6.8-0.4-10.1-1.1c-0.6-0.1-1.3-0.2-1.9-0.3c-18.4-2.8-35.5-13.5-47-29.6
	c-11.3-15.7-15.9-34.8-12.8-52.2c3.2-18,11.8-33.5,24.9-44.8c13-11.3,29.7-17.5,46.9-17.5c19.4-0.2,35.9-14.1,38.4-32.5
	c2.5-18.5-8.9-36-27.1-41.6c-4.4-1.3-8.9-1.9-13.5-1.7c-2.4,0-4.7,0.1-7,0.2c-2.3,0.1-4.7,0.2-7,0.2c-0.5,0-1.1,0-1.6,0h0
	c-1,0-2,0-3-0.1c-2.1-0.1-4.3-0.1-6.4-0.1l-183.2,0c-111.4,0-222.9,0-334.3,0h-0.1c-13.7,0-29.7,0.3-45.1,4.3
	C72,15.2,40.7,38.7,20.2,74.3l0,0c-14.5,23.2-21.2,48.2-20,74.2c-1,26.2,6,52,20,74.1c0,0.2,0.1,0.3,0.1,0.5
	c0.1,0.6,0.3,1.2,0.6,1.8c30.5,47.5,72.1,71.6,123.8,71.8c68.8,0.3,143.9,0.4,236.3,0.4c50.5,0,101,0,151.4-0.1
	c48.6,0,97.1-0.1,145.7-0.1c2,0,4-0.1,5.9-0.1c0.9,0,1.8-0.1,2.7-0.1l0,0c1.7,0,3.3,0,5,0.1c3.5,0.1,7.1,0.1,10.7,0.1h0.3
	c21.7,0,38.9-16.4,39-37.2c0.2-10.1-3.7-19.9-10.8-27.2C723.6,225.2,713.6,221.1,703.3,221.2z"/>
<path class="st1" d="M686.8,295.7c-2.9,0.1-5.8,0.2-8.7,0.2c-177.8,0-355.7,0.4-533.5-0.2c-53.9-0.2-94.3-26.6-123-71.3
	c-0.3-0.7-0.5-1.4-0.5-2.1c184.7,0,369.5,0,554.2,0c1.8,2.6,3.5,5.2,5.3,7.7c16.3,24.6,39.6,43.8,67,54.9
	C660.2,290.2,673.5,292.8,686.8,295.7z"/>
<path class="st1" d="M1.1,148.5C-0.1,121.8,7,97.3,21,74.8c3.4,0,6.8,0.1,10.1,0.1c177.8,0,355.5,0,533.3,0.1c3.2,0,6.8-1.4,9.6,1.6
	c-11.4,22.7-18.7,46.3-18.1,72L1.1,148.5z"/>
<path class="st2" d="M1.1,148.5l554.9-0.1c-0.5,26.4,6.6,50.8,19.3,73.8l-554.2,0C7.1,200.3,0.1,174.5,1.1,148.5z"/>
<path class="st2" d="M574.1,76.5c-2.8-2.9-6.4-1.6-9.6-1.6c-177.8-0.1-355.5-0.1-533.3-0.1c-3.4,0-6.8,0-10.1-0.1
	c20.9-36.2,52.1-58.8,92.4-69.3c14.8-3.8,29.9-4.3,45-4.3c172.5,0,345,0,517.5,0c3.1,0,6.3,0.1,9.4,0.2c-0.6,0.4-1.2,1-1.8,1.1
	c-22.5,2.5-42.7,10.9-61.5,23.1C602,38.7,586.8,56.4,574.1,76.5z"/>
<path class="st3" d="M574.1,76.5c12.7-20.1,27.9-37.8,48.1-50.9c18.8-12.2,39-20.6,61.5-23.1c0.6-0.1,1.2-0.7,1.8-1.1
	c9.6,0.2,19.3-1.6,28.8,1.3c17.8,5.5,28.9,22.6,26.4,40.5c-2.5,18-18.4,31.5-37.4,31.6c-36.5,0.3-66,26-72.7,63.1
	c-6.7,37.1,21.3,77.1,60.6,83c4,0.8,8.1,1.2,12.2,1.4c21.4,0.1,37.6,16.3,37.5,37.4c-0.1,20.3-16.8,36.2-38,36.2
	c-5.3,0-10.6-0.1-15.9-0.2c-13.3-2.9-26.6-5.5-39.3-10.8c-27.3-11.2-50.7-30.3-67-54.9c-1.7-2.6-3.5-5.2-5.3-7.7
	c-12.6-23-19.7-47.4-19.3-73.8C555.4,122.8,562.7,99.1,574.1,76.5z"/>
<path class="st4" d="M155.1,195.4c-5.4,2.7-16.3,5.4-30.2,5.4c-32.2,0-56.5-20.3-56.5-57.6c0-35.6,24.3-59.8,59.7-59.8
	c14.2,0,23.2,3,27.1,5.1l-3.6,12c-7.2-3.3-15.1-4.9-23.1-4.7c-26.8,0-44.6,17.1-44.6,47c0,27.9,16.1,45.8,43.9,45.8
	c9,0,18.1-1.9,24.1-4.7L155.1,195.4z"/>
<path class="st4" d="M179.5,160.9c0.3,20.1,13.2,28.4,28.2,28.4c10.7,0,17.1-1.9,22.7-4.2l2.5,10.6c-5.3,2.4-14.2,5.1-27.3,5.1
	c-25.3,0-40.4-16.6-40.4-41.2s14.6-44.1,38.5-44.1c26.8,0,33.9,23.5,33.9,38.5c0,2.3-0.2,4.6-0.5,6.9H179.5z M223.3,150.3
	c0.2-9.5-3.9-24.2-20.7-24.2c-15.1,0-21.7,13.9-22.9,24.2H223.3z"/>
<path class="st4" d="M256.2,79.2h14.9v119.9h-14.9V79.2z"/>
<path class="st4" d="M304.5,160.9c0.3,20.1,13.2,28.4,28.2,28.4c10.7,0,17.1-1.9,22.7-4.2l2.5,10.6c-5.3,2.4-14.2,5.1-27.3,5.1
	c-25.3,0-40.4-16.6-40.4-41.2s14.6-44.1,38.5-44.1c26.8,0,33.9,23.5,33.9,38.5c0,2.3-0.2,4.6-0.5,6.9H304.5z M348.3,150.3
	c0.2-9.5-3.9-24.2-20.7-24.2c-15.1,0-21.7,13.9-22.9,24.2H348.3z"/>
<path class="st4" d="M381.2,142.9c0-9.6-0.2-17.9-0.7-25.5h13.1l0.5,16h0.7c3.7-11,12.7-17.9,22.7-17.9c1.4,0,2.9,0.2,4.2,0.5v14
	c-1.7-0.4-3.4-0.5-5.1-0.5c-10.5,0-18,7.9-20,19.1c-0.4,2.3-0.6,4.6-0.7,6.9v43.6h-14.8V142.9z"/>
<path class="st4" d="M446.3,117.4l18,48.3c1.9,5.4,3.9,11.8,5.3,16.7h0.3c1.5-4.9,3.2-11.1,5.3-17.1l16.3-48h15.8l-22.4,58.3
	c-10.7,28-18,42.4-28.2,51.2c-7.3,6.4-14.6,9-18.3,9.6l-3.7-12.5c4.8-1.6,9.2-4,13.1-7.3c5.4-4.5,9.7-10.1,12.6-16.6
	c0.6-1.1,1-2.3,1.2-3.5c-0.1-1.3-0.5-2.7-1-3.9L430,117.4L446.3,117.4z"/>
<g>
	<g>
		<path id="path10349" class="st5" d="M282.3,285c-1.2-3.8-4-6.9-7.6-8.8l-72.4-34.7c-1.9-0.9-4-1.2-5.9-1.2s-4,0-5.9,0.5
			l-72.4,34.9c-3.6,1.7-6.2,4.7-7.1,8.8l-17.8,78.1c-0.7,4,0.2,8.1,2.6,11.4l50.1,62c2.8,2.8,6.9,4.7,10.9,5h79.8
			c4.3,0.5,8.3-1.4,10.9-5l50.1-62c2.4-3.3,3.3-7.4,2.8-11.4L282.3,285L282.3,285z"/>
		<path id="path10351" class="st0" d="M271.3,357.7L271.3,357.7c-0.2,0-0.5,0-0.5-0.2c0-0.2-0.5-0.2-0.9-0.2
			c-0.9-0.2-1.9-0.2-2.8-0.2c-0.5,0-0.9,0-1.4-0.2h-0.2c-2.6-0.2-5.5-0.7-8.1-1.4c-0.7-0.2-1.4-0.9-1.7-1.7c0.2,0,0,0,0,0l0,0
			l-1.9-0.5c0.9-6.9,0.5-14-0.9-20.9c-1.7-6.9-4.5-13.5-8.3-19.5l1.4-1.4l0,0v-0.2c0-0.7,0.2-1.7,0.7-2.1c2.1-1.9,4.3-3.3,6.6-4.7
			l0,0c0.5-0.2,0.9-0.5,1.4-0.7c0.9-0.5,1.7-0.9,2.6-1.4c0.2-0.2,0.5-0.2,0.7-0.5c0.2-0.2,0-0.2,0-0.5l0,0c2.1-1.7,2.6-4.5,0.9-6.6
			c-0.7-0.9-2.1-1.7-3.3-1.7c-1.2,0-2.4,0.5-3.3,1.2l0,0l-0.2,0.2c-0.2,0.2-0.5,0.5-0.7,0.5c-0.7,0.7-1.4,1.4-1.9,2.1
			c-0.2,0.5-0.7,0.7-0.9,0.9l0,0c-1.7,1.9-3.8,3.8-5.9,5.2c-0.5,0.2-0.9,0.5-1.4,0.5c-0.2,0-0.7,0-0.9-0.2h-0.2l-1.9,1.2
			c-1.9-1.9-4-3.8-5.9-5.7c-8.8-6.9-19.7-11.2-30.9-12.3l-0.2-1.9l0,0v0.2c-0.7-0.5-0.9-1.2-1.2-1.9c0-2.6,0-5.2,0.5-8.1v-0.2
			c0-0.5,0.2-0.9,0.2-1.4c0.2-0.9,0.2-1.9,0.5-2.8v-1.4l0,0c0.2-2.4-1.7-4.7-4-5c-1.4-0.2-2.8,0.5-4,1.7c-0.9,0.9-1.4,2.1-1.4,3.3
			l0,0v1.2c0,0.9,0.2,1.9,0.5,2.8c0.2,0.5,0.2,0.9,0.2,1.4v0.2c0.5,2.6,0.5,5.2,0.5,8.1c-0.2,0.7-0.5,1.4-1.2,1.9v0.5l0,0l-0.2,1.9
			c-2.6,0.2-5.2,0.7-8.1,1.2c-11.2,2.4-21.4,8.3-29.2,16.6l-1.4-0.9h-0.2c-0.2,0-0.5,0.2-0.9,0.2c-0.5,0-0.9-0.2-1.4-0.5
			c-2.1-1.7-4.3-3.6-5.9-5.5l0,0c-0.2-0.5-0.7-0.7-0.9-0.9c-0.7-0.7-1.2-1.4-1.9-2.1c-0.2-0.2-0.5-0.2-0.7-0.5
			c-0.2-0.2-0.2-0.2-0.2-0.2l0,0c-0.9-0.7-2.1-1.2-3.3-1.2c-1.4,0-2.6,0.5-3.3,1.7c-1.4,2.1-0.9,5,0.9,6.6l0,0
			c0.2,0,0.2,0.2,0.2,0.2s0.5,0.5,0.7,0.5c0.7,0.5,1.7,0.9,2.6,1.4c0.5,0.2,0.9,0.5,1.4,0.7l0,0c2.4,1.4,4.7,2.8,6.6,4.7
			c0.5,0.5,0.9,1.4,0.7,2.1v-0.2l0,0l1.4,1.4c-0.2,0.5-0.5,0.7-0.7,1.2c-7.4,11.6-10.4,25.4-8.3,38.9l-1.9,0.5l0,0
			c0,0.2-0.2,0.2-0.2,0.2c-0.2,0.7-0.9,1.2-1.7,1.7c-2.6,0.7-5.2,1.2-8.1,1.4l0,0c-0.5,0-0.9,0-1.4,0.2c-0.9,0-1.9,0.2-2.8,0.2
			c-0.2,0-0.5,0.2-0.9,0.2c-0.2,0-0.2,0-0.5,0.2l0,0c-2.6,0.5-4.3,2.8-3.8,5.5l0,0c0.5,2.1,2.6,3.6,4.7,3.3c0.5,0,0.7,0,1.2-0.2l0,0
			c0.2,0,0.2,0,0.2-0.2c0-0.2,0.7,0,0.9,0c0.9-0.2,1.9-0.7,2.6-0.9c0.5-0.2,0.9-0.5,1.4-0.5h0.2c2.6-0.9,5-1.7,7.8-2.1h0.2
			c0.7,0,1.4,0.2,1.9,0.7c0.2,0,0.2,0.2,0.2,0.2l0,0l2.1-0.2c3.6,10.9,10.2,20.7,19.5,27.8c2.1,1.7,4,3.1,6.4,4.3l-1.2,1.7l0,0
			c0,0.2,0.2,0.2,0.2,0.2c0.5,0.7,0.5,1.7,0.2,2.4c-0.9,2.4-2.4,4.7-3.8,6.9v0.2c-0.2,0.5-0.5,0.7-0.9,1.2c-0.5,0.5-0.9,1.4-1.7,2.4
			c-0.2,0.2-0.2,0.5-0.5,0.7c0,0,0,0.2-0.2,0.2l0,0c-1.2,2.4-0.2,5.2,1.9,6.4c0.5,0.2,1.2,0.5,1.7,0.5c1.9,0,3.6-1.2,4.5-2.8l0,0
			c0,0,0-0.2,0.2-0.2c0-0.2,0.2-0.5,0.5-0.7c0.2-0.9,0.7-1.7,0.9-2.6l0.5-1.4l0,0c0.7-2.6,1.9-5,3.1-7.4c0.5-0.7,1.2-1.2,1.9-1.4
			c0.2,0,0.2,0,0.2-0.2l0,0l0.9-1.9c6.6,2.6,13.5,3.8,20.7,3.8c4.3,0,8.5-0.5,12.8-1.7c2.6-0.5,5.2-1.4,7.6-2.1l0.9,1.7l0,0
			c0.2,0,0.2,0,0.2,0.2c0.7,0.2,1.4,0.7,1.9,1.4c1.2,2.4,2.4,4.7,3.1,7.4v0.2l0.5,1.4c0.2,0.9,0.5,1.9,0.9,2.6
			c0.2,0.2,0.2,0.5,0.5,0.7c0,0,0,0.2,0.2,0.2l0,0c0.9,1.7,2.6,2.8,4.5,2.8c0.7,0,1.2-0.2,1.9-0.5c0.9-0.5,1.9-1.4,2.1-2.6
			c0.2-1.2,0.2-2.4-0.2-3.6l0,0c0-0.2-0.2-0.2-0.2-0.2c0-0.2-0.2-0.5-0.5-0.7c-0.5-0.9-0.9-1.7-1.7-2.4c-0.2-0.5-0.5-0.7-0.9-1.2
			v-0.5c-1.7-2.1-2.8-4.5-3.8-6.9c-0.2-0.7-0.2-1.7,0.2-2.4c0-0.2,0.2-0.2,0.2-0.2l0,0l-0.7-1.9c12.1-7.4,21.4-18.8,25.6-32.3
			l1.9,0.2l0,0c0.2,0,0.2-0.2,0.2-0.2c0.5-0.5,1.2-0.7,1.9-0.7h0.2c2.6,0.5,5.2,1.2,7.6,2.1h0.2c0.5,0.2,0.9,0.5,1.4,0.5
			c0.9,0.5,1.7,0.9,2.6,1.2c0.2,0,0.5,0.2,0.9,0.2c0.2,0,0.2,0,0.5,0.2l0,0c0.5,0.2,0.7,0.2,1.2,0.2c2.1,0,4-1.4,4.7-3.3
			C275.3,360,273.4,358.1,271.3,357.7L271.3,357.7z M202.7,350.3l-6.4,3.1l-6.4-3.1l-1.7-6.9l4.5-5.7h7.1l4.5,5.7L202.7,350.3z
			 M241.4,334.9c1.2,5,1.4,10,0.9,15l-22.5-6.4l0,0c-2.1-0.5-3.3-2.6-2.8-4.7c0.2-0.7,0.5-1.2,0.9-1.7l17.8-16.1
			C238.3,325.1,240.2,329.9,241.4,334.9z M228.5,312.1l-19.5,13.8c-1.7,0.9-4,0.7-5.2-0.9c-0.5-0.5-0.7-0.9-0.7-1.7l-1.4-24
			C212.2,300.5,221.4,305,228.5,312.1C228.5,312.1,228.5,312.1,228.5,312.1z M185.6,300l4.7-0.9l-1.2,23.7l0,0c0,2.1-1.9,3.8-4,3.8
			c-0.7,0-1.2-0.2-1.9-0.5l-19.7-14C169.7,306.2,177.3,301.9,185.6,300z M156.6,320.9l17.6,15.7l0,0c1.7,1.4,1.9,3.8,0.5,5.5
			c-0.5,0.7-0.9,0.9-1.9,1.2l-23,6.6C149,339.9,151.4,329.7,156.6,320.9z M152.6,361l23.5-4c1.9,0,3.8,1.2,4,3.1
			c0.2,0.7,0.2,1.7-0.2,2.4l0,0l-9,21.8C162.6,378.8,155.9,370.5,152.6,361z M206.5,390.4c-3.3,0.7-6.6,1.2-10.2,1.2
			c-5,0-10.2-0.9-15-2.4l11.6-21.1c1.2-1.4,3.1-1.9,4.7-0.9c0.7,0.5,1.2,0.9,1.9,1.7l0,0l11.4,20.7
			C209.5,389.7,208.1,389.9,206.5,390.4z M235.4,369.8c-3.6,5.7-8.5,10.7-14.2,14.2l-9.3-22.3c-0.5-1.9,0.5-3.8,2.1-4.5
			c0.7-0.2,1.4-0.5,2.1-0.5l23.7,4C238.7,364.1,237.3,367.2,235.4,369.8z"/>
	</g>
	<g>
		<path d="M349.5,295v107.9h-22.5V297.4L349.5,295z M398.7,327.4l-24.8,33.4l26.9,42.1h-25.6l-24.8-41.4l24.8-34.1H398.7z"/>
		<path d="M477.9,328c0,4.6-1.2,8.6-3.7,11.9c-2.5,3.3-6.3,6.5-11.6,9.5c6.6,3.3,11.5,7.2,14.5,11.8c3.1,4.5,4.6,9.6,4.6,15.1
			c0,5.1-1.4,9.8-4.2,14.3c-2.8,4.4-6.9,8-12.4,10.8c-5.5,2.7-12.3,4.1-20.5,4.1c-8,0-14.7-1.3-20.1-4s-9.4-6.2-12.1-10.5
			c-2.7-4.3-4-9-4-14.1c0-5.6,1.6-10.5,4.9-14.7c3.3-4.2,7.7-7.5,13.2-9.9c-5-3.2-8.7-6.5-10.9-9.8c-2.3-3.3-3.4-7.7-3.4-13.2
			c0-4.2,0.8-8,2.5-11.3c1.7-3.3,4-6.2,6.9-8.6c3-2.4,6.4-4.2,10.5-5.4c4-1.3,8.4-1.9,13-1.9c4.8,0,9.2,0.6,13.2,1.8
			c4,1.2,7.4,3,10.3,5.2s5.2,5,6.8,8.2C477.1,320.3,477.9,323.9,477.9,328z M459.3,376c0-3.3-0.7-5.9-2-8c-1.3-2-3.3-3.8-6.1-5.3
			s-6.4-3-10.8-4.6c-1.9,1.2-3.6,2.7-5,4.4c-1.4,1.7-2.5,3.6-3.3,5.7c-0.8,2.1-1.2,4.5-1.2,7.1c0,4.1,1.2,7.4,3.6,10
			c2.4,2.6,6,3.9,10.7,3.9c4.9,0,8.4-1.3,10.7-3.9C458.1,382.7,459.3,379.6,459.3,376z M433.7,329.1c0,2.3,0.5,4.4,1.5,6.1
			c1,1.8,2.6,3.3,4.7,4.7c2.1,1.4,4.8,2.7,8.1,3.9c3.2-2.4,5.4-4.7,6.6-7c1.2-2.3,1.8-4.8,1.8-7.6c0-3.5-0.9-6.4-2.8-8.7
			c-1.9-2.3-4.7-3.4-8.4-3.4c-3.7,0-6.5,1-8.5,3C434.7,322.2,433.7,325.2,433.7,329.1z"/>
		<path d="M528,389.2c3.7,0,6.8-0.6,9.1-1.8c2.3-1.2,3.4-3,3.4-5.3c0-1.6-0.5-3-1.4-4.1c-0.9-1.1-2.6-2.1-5.2-3.1s-6.4-2.2-11.4-3.6
			c-4.6-1.2-8.7-2.8-12.2-4.7c-3.5-1.9-6.3-4.3-8.2-7.3c-2-3-3-6.7-3-11.2c0-4.5,1.3-8.5,3.8-12c2.5-3.5,6.2-6.3,11.1-8.3
			c4.9-2,10.9-3,17.9-3c6.7,0,12.6,0.9,17.6,2.6c5,1.7,9.3,3.9,13,6.6l-9,13.2c-3.1-1.9-6.5-3.5-10.1-4.7c-3.6-1.2-7.2-1.7-10.9-1.7
			c-3.7,0-6.4,0.5-8.1,1.5s-2.7,2.4-2.7,4.4c0,1.3,0.5,2.4,1.4,3.3c0.9,0.9,2.7,1.9,5.2,2.8c2.6,1,6.3,2.2,11.2,3.6
			c4.9,1.4,9.1,3,12.8,4.8c3.6,1.8,6.4,4.2,8.4,7.2c2,3,3,7,3,11.9c0,5.5-1.6,10.1-4.9,13.8c-3.3,3.7-7.6,6.5-13,8.4
			c-5.4,1.8-11.3,2.8-17.8,2.8c-7.3,0-13.7-1-19.3-3.1c-5.6-2.1-10.4-4.8-14.3-8.2l11.3-12.7c2.9,2.3,6.3,4.2,10,5.7
			C519.5,388.5,523.6,389.2,528,389.2z"/>
	</g>
</g>
</svg>
